D:\school\WTK\thesis\model\3dpredictsim\Results\batch_windlass\Pog_s1_tmt_aCst_d05_k1000_WL10_ig24_act_TTC_GRF.mot
nRows=25
nColumns=19

name D:\school\WTK\thesis\model\3dpredictsim\Results\batch_windlass\Pog_s1_tmt_aCst_d05_k1000_WL10_ig24_act_TTC_GRF.mot
datacolumns 19
datarows 25
range 0.5895556613 0.8725423787
endheader
time 	ground_force_vx	ground_force_vy	ground_force_vz	ground_force_px	ground_force_py	ground_force_pz	1_ground_force_vx	1_ground_force_vy	1_ground_force_vz	1_ground_force_px	1_ground_force_py	1_ground_force_pz	ground_torque_x	ground_torque_y	ground_torque_z	1_ground_torque_x	1_ground_torque_y	1_ground_torque_z
        0.5895556613	       89.0178252161	      375.3603702951	        1.8225511450	        0.3648518380	        0.0000000000	        0.0323729844	      -77.2150190001	       58.8600344573	      -13.0136869813	        0.8885779961	        0.0000000000	       -0.0640557001	        0.0000000000	        0.0000000000	        0.0000000000	        0.0000000000	        0.0000000000	        0.0000000000	
        0.6013467745	       54.0473650242	      272.8516162350	       11.5700389699	        0.3750693922	        0.0000000000	        0.0277124190	     -157.5737677816	      158.1209614231	      -36.1213881407	        0.9037863174	        0.0000000000	       -0.0637810480	        0.0000000000	        0.0000000000	        0.0000000000	        0.0000000000	        0.0000000000	        0.0000000000	
        0.6131378878	       33.7306200565	      208.6891025746	       18.6151899568	        0.3841447802	        0.0000000000	        0.0231881874	      -79.7342892793	      424.5660051428	       -3.4312438291	        0.9195342110	        0.0000000000	       -0.0644084978	        0.0000000000	        0.0000000000	        0.0000000000	        0.0000000000	        0.0000000000	        0.0000000000	
        0.6249290010	       31.7764719850	      174.0901296900	       18.2917651591	        0.3841585300	        0.0000000000	        0.0233215697	      -96.0948018068	      700.2869013351	       19.0938929589	        0.9293469808	        0.0000000000	       -0.0644798279	        0.0000000000	        0.0000000000	        0.0000000000	        0.0000000000	        0.0000000000	        0.0000000000	
        0.6367201142	       23.7655282563	      125.3061242938	       18.9189104966	        0.3843741441	        0.0000000000	        0.0235177010	     -146.9764299709	      890.8226908890	       23.4503374229	        0.9421256907	        0.0000000000	       -0.0628554172	        0.0000000000	        0.0000000000	        0.0000000000	        0.0000000000	        0.0000000000	        0.0000000000	
        0.6485112274	        5.5242919068	       68.2202113775	       16.0463876619	        0.3836852376	        0.0000000000	        0.0238233894	     -163.8997296863	      942.9256555047	       22.4066608474	        0.9525136338	        0.0000000000	       -0.0609508920	        0.0000000000	        0.0000000000	        0.0000000000	        0.0000000000	        0.0000000000	        0.0000000000	
        0.6603023407	       -5.6732946586	       10.5083730935	        2.3824824106	        0.3799998524	        0.0000000000	        0.0229169742	     -147.5077636591	      893.7214468316	       21.0745788006	        0.9568458431	        0.0000000000	       -0.0598538657	        0.0000000000	        0.0000000000	        0.0000000000	        0.0000000000	        0.0000000000	        0.0000000000	
        0.6720934539	       -2.4264387979	        2.0348964060	       -0.1390018275	        0.0000000000	        0.0000000000	        0.0000000000	     -125.3160776066	      824.8247564103	       19.7894437201	        0.9595472997	        0.0000000000	       -0.0592658723	        0.0000000000	        0.0000000000	        0.0000000000	        0.0000000000	        0.0000000000	        0.0000000000	
        0.6838845671	       -8.0026036815	        5.7578518278	       -0.6018533635	        0.0000000000	        0.0000000000	        0.0000000000	     -109.7299393613	      772.7024239974	       19.3828239054	        0.9626688846	        0.0000000000	       -0.0588256246	        0.0000000000	        0.0000000000	        0.0000000000	        0.0000000000	        0.0000000000	        0.0000000000	
        0.6956756803	       -6.7789607007	        4.2876487743	       -0.5674808873	        0.0000000000	        0.0000000000	        0.0000000000	      -96.8034038904	      736.3285897332	       20.0291746477	        0.9656927952	        0.0000000000	       -0.0584792098	        0.0000000000	        0.0000000000	        0.0000000000	        0.0000000000	        0.0000000000	        0.0000000000	
        0.7074667936	       -4.9208743093	        2.8194639758	       -0.4349199738	        0.0000000000	        0.0000000000	        0.0000000000	      -83.8755483002	      706.5156237915	       20.9049426705	        0.9684879090	        0.0000000000	       -0.0582431895	        0.0000000000	        0.0000000000	        0.0000000000	        0.0000000000	        0.0000000000	        0.0000000000	
        0.7192579068	       -3.4593126792	        1.8263581754	       -0.3214043645	        0.0000000000	        0.0000000000	        0.0000000000	      -71.3716427102	      681.0001862521	       21.5625251212	        0.9723497932	        0.0000000000	       -0.0579355849	        0.0000000000	        0.0000000000	        0.0000000000	        0.0000000000	        0.0000000000	        0.0000000000	
        0.7310490200	       -2.8281949388	        1.4133773001	       -0.2544285287	        0.0000000000	        0.0000000000	        0.0000000000	      -61.9543901413	      660.4356762299	       21.3535965350	        0.9774650176	        0.0000000000	       -0.0574618948	        0.0000000000	        0.0000000000	        0.0000000000	        0.0000000000	        0.0000000000	        0.0000000000	
        0.7428401332	       -2.1151445644	        1.0147846096	       -0.1834004720	        0.0000000000	        0.0000000000	        0.0000000000	      -54.6225364374	      644.1767621633	       21.4686186117	        0.9833249872	        0.0000000000	       -0.0568364326	        0.0000000000	        0.0000000000	        0.0000000000	        0.0000000000	        0.0000000000	        0.0000000000	
        0.7546312465	       -1.5349373282	        0.7132037511	       -0.1274886807	        0.0000000000	        0.0000000000	        0.0000000000	      -48.7500187116	      630.4782101173	       21.5998865173	        0.9895668276	        0.0000000000	       -0.0561060840	        0.0000000000	        0.0000000000	        0.0000000000	        0.0000000000	        0.0000000000	        0.0000000000	
        0.7664223597	       -1.1435572993	        0.5180688456	       -0.0904374978	        0.0000000000	        0.0000000000	        0.0000000000	      -43.8096073575	      618.0449621124	       21.4246589463	        0.9958602169	        0.0000000000	       -0.0553259901	        0.0000000000	        0.0000000000	        0.0000000000	        0.0000000000	        0.0000000000	        0.0000000000	
        0.7782134729	       -0.8976790164	        0.3982736496	       -0.0666446738	        0.0000000000	        0.0000000000	        0.0000000000	      -39.3043265874	      606.9250925581	       20.8084271766	        1.0020671513	        0.0000000000	       -0.0545276554	        0.0000000000	        0.0000000000	        0.0000000000	        0.0000000000	        0.0000000000	        0.0000000000	
        0.7900045861	       -0.7480345217	        0.3258864339	       -0.0512114868	        0.0000000000	        0.0000000000	        0.0000000000	      -36.1515895565	      598.2352236452	       20.0660702829	        1.0080688748	        0.0000000000	       -0.0537232587	        0.0000000000	        0.0000000000	        0.0000000000	        0.0000000000	        0.0000000000	        0.0000000000	
        0.8017956994	       -0.6667410713	        0.2856480653	       -0.0415995928	        0.0000000000	        0.0000000000	        0.0000000000	      -32.8830185398	      590.8888778724	       19.4347777285	        1.0137405534	        0.0000000000	       -0.0529402747	        0.0000000000	        0.0000000000	        0.0000000000	        0.0000000000	        0.0000000000	        0.0000000000	
        0.8135868126	       -0.6418358979	        0.2705677579	       -0.0362053834	        0.0000000000	        0.0000000000	        0.0000000000	      -29.3338943362	      583.3813647834	       18.7760506379	        1.0191118468	        0.0000000000	       -0.0521814624	        0.0000000000	        0.0000000000	        0.0000000000	        0.0000000000	        0.0000000000	        0.0000000000	
        0.8253779258	       -0.6617211041	        0.2746176653	       -0.0336113776	        0.0000000000	        0.0000000000	        0.0000000000	      -25.7817936992	      576.4133400653	       18.4190605201	        1.0242843914	        0.0000000000	       -0.0514272805	        0.0000000000	        0.0000000000	        0.0000000000	        0.0000000000	        0.0000000000	        0.0000000000	
        0.8371690391	       -0.7177454240	        0.2935359246	       -0.0328137571	        0.0000000000	        0.0000000000	        0.0000000000	      -22.3305349284	      569.7787048240	       18.3644587935	        1.0292700434	        0.0000000000	       -0.0506740091	        0.0000000000	        0.0000000000	        0.0000000000	        0.0000000000	        0.0000000000	        0.0000000000	
        0.8489601523	       -0.8022598769	        0.3238104847	       -0.0331504074	        0.0000000000	        0.0000000000	        0.0000000000	      -19.0401477284	      563.4720907216	       18.5393378341	        1.0340578722	        0.0000000000	       -0.0499248736	        0.0000000000	        0.0000000000	        0.0000000000	        0.0000000000	        0.0000000000	        0.0000000000	
        0.8607512655	       -0.9073883224	        0.3621140425	       -0.0341207057	        0.0000000000	        0.0000000000	        0.0000000000	      -15.9728389180	      557.6110929050	       18.7417867149	        1.0386092948	        0.0000000000	       -0.0491914922	        0.0000000000	        0.0000000000	        0.0000000000	        0.0000000000	        0.0000000000	        0.0000000000	
        0.8725423787	       -1.0223128181	        0.4041962559	       -0.0350741789	        0.0000000000	        0.0000000000	        0.0000000000	      -13.0675598097	      552.5292055830	       18.7650783553	        1.0428669777	        0.0000000000	       -0.0484893204	        0.0000000000	        0.0000000000	        0.0000000000	        0.0000000000	        0.0000000000	        0.0000000000	
